<svg width="400" height="250" xmlns="http://www.w3.org/2000/svg"><path d="M14 13 12 15 13 16 12 17 12 19 13 20 12 21 12 34 13 35 13 38 12 39 12 43 13 44 13 46 12 47 12 53 13 54 13 55 12 56 12 59 13 60 13 61 12 62 12 134 13 135 253 135 254 136 254 234 255 235 381 235 381 56 382 55 381 54 381 45 382 44 382 43 381 42 381 40 382 39 382 38 381 37 381 35 382 34 382 31 381 30 381 28 382 27 381 26 381 25 382 24 381 23 381 22 382 21 381 20 381 14 379 14 378 13 376 13 375 14 374 13 351 13 350 14 347 14 346 13 344 13 343 14 341 14 340 13 320 13 319 14 318 14 317 13 306 13 305 14 304 13 302 13 301 14 297 14 296 13 292 13 291 14 290 13 289 14 285 14 284 13 283 14 282 13 275 13 274 14 273 13 272 14 271 14 270 13 269 13 268 14 267 14 266 13 265 14 264 13 259 13 258 14 257 14 256 13 248 13 247 14 246 14 245 13 244 13 243 14 242 14 241 13 240 14 239 13 234 13 233 14 232 13 228 13 227 14 225 14 224 13 223 14 222 13 219 13 218 14 214 14 213 13 212 14 210 14 209 13 208 13 207 14 206 13 203 13 202 14 201 14 200 13 199 13 198 14 196 14 195 13 189 13 188 14 187 13 186 14 185 13 183 13 182 14 176 14 175 13 174 13 173 14 171 14 170 13 169 13 168 14 166 14 165 13 153 13 152 14 150 14 149 13 148 14 147 13 146 13 145 14 144 13 142 13 141 14 139 14 138 13 128 13 127 14 125 14 124 13 122 13 121 14 119 14 118 13 108 13 107 14 105 14 104 13 103 13 102 14 100 14 99 13 96 13 95 14 94 13 87 13 86 14 85 13 83 13 82 14 80 14 79 13 75 13 74 14 72 14 71 13 68 13 67 14 64 14 63 13 61 13 60 14 59 14 58 13 57 13 56 14 55 13 48 13 47 14 46 13 43 13 42 14 41 14 40 13 37 13 36 14 35 14 34 13 33 14 32 14 31 13 27 13 26 14 25 14 24 13 23 14 18 14 17 13 " fill="#fefefe"/><path d="M14 13 17 13 18 14 23 14 24 13 25 14 26 14 27 13 31 13 32 14 33 14 34 13 35 14 36 14 37 13 40 13 41 14 42 14 43 13 46 13 47 14 48 13 55 13 56 14 57 13 58 13 59 14 60 14 61 13 63 13 64 14 67 14 68 13 71 13 72 14 74 14 75 13 79 13 80 14 82 14 83 13 85 13 86 14 87 13 94 13 95 14 96 13 99 13 100 14 102 14 103 13 104 13 105 14 107 14 108 13 118 13 119 14 121 14 122 13 124 13 125 14 127 14 128 13 138 13 139 14 141 14 142 13 144 13 145 14 146 13 147 13 148 14 149 13 150 14 152 14 153 13 165 13 166 14 168 14 169 13 170 13 171 14 173 14 174 13 175 13 176 14 182 14 183 13 185 13 186 14 187 13 188 14 189 13 195 13 196 14 198 14 199 13 200 13 201 14 202 14 203 13 206 13 207 14 208 13 209 13 210 14 212 14 213 13 214 14 218 14 219 13 222 13 223 14 224 13 225 14 227 14 228 13 232 13 233 14 234 13 239 13 240 14 241 13 242 14 243 14 244 13 245 13 246 14 247 14 248 13 256 13 257 14 258 14 259 13 264 13 265 14 266 13 267 14 268 14 269 13 270 13 271 14 272 14 273 13 274 14 275 13 282 13 283 14 284 13 285 14 289 14 290 13 291 14 292 13 296 13 297 14 301 14 302 13 304 13 305 14 306 13 317 13 318 14 319 14 320 13 340 13 341 14 343 14 344 13 346 13 347 14 350 14 351 13 374 13 375 14 376 13 378 13 379 14 380 14 381 15 381 20 382 21 381 22 381 23 382 24 381 25 381 26 382 27 381 28 381 30 382 31 382 34 381 35 381 37 382 38 382 39 381 40 381 42 382 43 382 44 381 45 381 54 382 55 381 56 381 234 380 235 255 235 254 234 254 136 253 135 13 135 12 134 12 62 13 61 13 60 12 59 12 56 13 55 13 54 12 53 12 47 13 46 13 44 12 43 12 39 13 38 13 35 12 34 12 21 13 20 12 19 12 17 13 16 12 15 " fill="#fefefe"/><path d="M345 203 344 204 343 204 342 205 341 205 337 209 337 210 336 211 336 212 335 213 335 217 336 218 336 219 337 220 337 221 341 225 342 225 343 226 351 226 352 225 353 225 357 221 357 220 358 219 358 211 357 210 357 209 353 205 352 205 351 204 350 204 349 203 " fill="#9c27b0"/><path d="M344 204 345 203 349 203 350 204 351 204 353 206 354 206 356 208 356 209 358 211 358 219 356 221 356 222 354 224 353 224 351 226 343 226 341 224 340 224 338 222 338 221 336 219 336 218 335 217 335 213 336 212 336 211 338 209 338 208 340 206 341 206 343 204 " fill="#03a9f4"/><path d="M301 129 300 130 299 130 298 131 297 131 293 135 293 136 292 137 292 138 291 139 291 143 292 144 292 145 293 146 293 147 297 151 298 151 299 152 307 152 308 151 309 151 313 147 313 146 314 145 314 137 313 136 313 135 309 131 308 131 307 130 306 130 305 129 " fill="#9c27b0"/><path d="M300 130 301 129 305 129 306 130 307 130 309 132 310 132 312 134 312 135 314 137 314 145 312 147 312 148 310 150 309 150 307 152 299 152 297 150 296 150 294 148 294 147 292 145 292 144 291 143 291 139 292 138 292 137 294 135 294 134 296 132 297 132 299 130 " fill="#03a9f4"/><path d="M174 80 173 81 172 81 171 82 170 82 166 86 166 87 165 88 165 89 164 90 164 94 165 95 165 96 166 97 166 98 170 102 171 102 172 103 180 103 181 102 182 102 186 98 186 97 187 96 187 88 186 87 186 86 182 82 181 82 180 81 179 81 178 80 " fill="#9c27b0"/><path d="M173 81 174 80 178 80 179 81 180 81 182 83 183 83 185 85 185 86 187 88 187 96 185 98 185 99 183 101 182 101 180 103 172 103 170 101 169 101 167 99 167 98 165 96 165 95 164 94 164 90 165 89 165 88 167 86 167 85 169 83 170 83 172 81 " fill="#03a9f4"/><path d="M233 78 232 79 231 79 230 80 229 80 225 84 225 85 224 86 224 87 223 88 223 92 224 93 224 94 225 95 225 96 229 100 230 100 231 101 239 101 240 100 241 100 245 96 245 95 246 94 246 86 245 85 245 84 241 80 240 80 239 79 238 79 237 78 " fill="#9c27b0"/><path d="M232 79 233 78 237 78 238 79 239 79 241 81 242 81 244 83 244 84 246 86 246 94 244 96 244 97 242 99 241 99 239 101 231 101 229 99 228 99 226 97 226 96 224 94 224 93 223 92 223 88 224 87 224 86 226 84 226 83 228 81 229 81 231 79 " fill="#03a9f4"/><path d="M285 46 284 47 282 47 281 48 280 48 276 52 276 53 275 54 275 55 274 56 274 57 275 58 274 59 274 60 275 61 275 62 276 63 276 64 280 68 281 68 282 69 290 69 291 68 292 68 296 64 296 63 297 62 297 54 296 53 296 52 292 48 291 48 290 47 289 47 288 46 287 47 286 47 " fill="#9c27b0"/><path d="M284 47 285 46 286 47 287 47 288 46 289 47 290 47 292 49 293 49 295 51 295 52 297 54 297 62 295 64 295 65 293 67 292 67 290 69 282 69 280 67 279 67 277 65 277 64 275 62 275 61 274 60 274 59 275 58 274 57 274 56 275 55 275 54 277 52 277 51 279 49 280 49 282 47 " fill="#03a8f5"/><path d="M45 42 44 43 42 43 41 44 40 44 36 48 36 49 35 50 35 51 34 52 34 56 35 57 35 58 36 59 36 60 40 64 41 64 42 65 50 65 51 64 52 64 56 60 56 59 57 58 57 56 58 55 58 54 57 53 57 50 56 49 56 48 52 44 51 44 50 43 49 43 48 42 " fill="#9c27b1"/><path d="M44 43 45 42 48 42 49 43 50 43 52 45 53 45 55 47 55 48 57 50 57 53 58 54 58 55 57 56 57 58 55 60 55 61 53 63 52 63 50 65 42 65 40 63 39 63 37 61 37 60 35 58 35 57 34 56 34 52 35 51 35 50 37 48 37 47 39 45 40 45 42 43 " fill="#02a8f5"/><path d="M108 41 107 42 104 42 103 43 102 43 98 47 98 48 97 49 97 50 96 51 96 53 97 54 97 57 98 58 98 59 102 63 103 63 104 64 112 64 113 63 114 63 118 59 118 58 119 57 119 49 118 48 118 47 114 43 113 43 112 42 111 42 110 41 " fill="#9c27b1"/><path d="M107 42 108 41 110 41 111 42 112 42 114 44 115 44 117 46 117 47 119 49 119 57 117 59 117 60 115 62 114 62 112 64 104 64 102 62 101 62 99 60 99 59 97 57 97 54 96 53 96 51 97 50 97 49 99 47 99 46 101 44 102 44 104 42 " fill="#03a9f5"/></svg>