<svg width="400" height="250" xmlns="http://www.w3.org/2000/svg">
    <path d="M32 34 30 36 30 42 31 43 31 44 30 45 30 53 31 54 30 55 30 92 31 93 31 94 30 95 30 103 31 104 171 104 172 105 172 134 171 135 32 135 30 137 30 201 31 202 372 202 372 136 371 135 245 135 244 134 244 106 246 104 370 104 370 61 371 60 371 57 370 56 370 53 371 52 370 51 370 41 371 40 370 39 370 37 371 36 369 34 366 34 365 35 364 34 362 34 361 35 358 35 357 34 354 34 353 35 352 34 351 34 350 35 349 35 348 34 339 34 338 35 337 34 336 34 335 35 330 35 329 34 328 35 327 34 326 34 325 35 324 35 323 34 314 34 313 35 312 34 308 34 307 35 306 34 301 34 300 35 298 35 297 34 287 34 286 35 285 35 284 34 276 34 275 35 274 34 264 34 263 35 262 34 255 34 254 35 253 35 252 34 250 34 249 35 248 34 241 34 240 35 239 34 238 34 237 35 236 34 233 34 232 35 229 35 228 34 227 34 226 35 225 35 224 34 220 34 219 35 218 34 217 34 216 35 213 35 212 34 209 34 208 35 207 34 206 35 205 34 204 35 201 35 200 34 197 34 196 35 195 35 194 34 192 34 191 35 190 35 189 34 185 34 184 35 178 35 177 34 174 34 173 35 172 35 171 34 165 34 164 35 163 35 162 34 157 34 156 35 149 35 148 34 145 34 144 35 139 35 138 34 135 34 134 35 132 35 131 34 130 35 129 35 128 34 126 34 125 35 124 34 122 34 121 35 119 35 118 34 110 34 109 35 108 34 105 34 104 35 101 35 100 34 98 34 97 35 96 35 95 34 88 34 87 35 86 35 85 34 84 34 83 35 79 35 78 34 77 34 76 35 70 35 69 34 68 34 67 35 65 35 64 34 61 34 60 35 59 35 58 34 57 34 56 35 55 35 54 34 52 34 51 35 49 35 48 34 47 35 45 35 44 34 40 34 39 35 35 35 34 34 "
          fill="#fefeff"/>
    <path d="M32 43 37 43 38 44 38 60 39 61 38 62 38 92 37 93 31 93 30 92 30 55 31 54 30 53 30 45 " fill="#f44337"/>
    <path d="M363 42 369 42 370 43 370 51 371 52 370 53 370 56 371 57 371 60 370 61 370 95 369 96 362 96 361 95 361 58 362 57 362 56 361 55 361 47 362 46 361 45 361 44 "
          fill="#f54237"/>
    <path d="M32 34 34 34 35 35 39 35 40 34 44 34 45 35 47 35 48 34 49 35 51 35 52 34 54 34 55 35 56 35 57 34 58 34 59 35 60 35 61 34 64 34 65 35 67 35 68 34 69 34 70 35 76 35 77 34 78 34 79 35 83 35 84 34 85 34 86 35 87 35 88 34 95 34 96 35 97 35 98 34 100 34 101 35 104 35 105 34 108 34 109 35 110 34 118 34 119 35 121 35 122 34 124 34 125 35 126 34 128 34 129 35 130 35 131 34 132 35 134 35 135 34 138 34 139 35 144 35 145 34 148 34 149 35 156 35 157 34 162 34 163 35 164 35 165 34 171 34 172 35 173 35 174 34 177 34 178 35 184 35 185 34 189 34 190 35 191 35 192 34 194 34 195 35 196 35 197 34 200 34 201 35 204 35 205 34 206 35 207 34 208 35 209 34 212 34 213 35 216 35 217 34 218 34 219 35 220 34 224 34 225 35 226 35 227 34 228 34 229 35 232 35 233 34 236 34 237 35 238 34 239 34 240 35 241 34 248 34 249 35 250 34 252 34 253 35 254 35 255 34 262 34 263 35 264 34 274 34 275 35 276 34 284 34 285 35 286 35 287 34 297 34 298 35 300 35 301 34 306 34 307 35 308 34 312 34 313 35 314 34 323 34 324 35 325 35 326 34 327 34 328 35 329 34 330 35 335 35 336 34 337 34 338 35 339 34 348 34 349 35 350 35 351 34 352 34 353 35 354 34 357 34 358 35 361 35 362 34 364 34 365 35 366 34 369 34 371 36 370 37 370 39 371 40 369 42 363 42 361 44 361 45 362 46 361 47 361 55 362 56 362 57 361 58 361 95 362 96 369 96 370 97 370 103 369 104 246 104 244 106 244 134 245 135 371 135 372 136 372 201 371 202 31 202 30 201 30 137 32 135 172 135 172 105 171 104 31 104 30 103 30 95 32 93 38 93 38 62 39 61 38 60 38 44 37 43 31 43 30 42 30 36 "
          fill="#fefeff"/>
    <path d="M334 160 332 162 332 169 333 170 366 170 366 161 365 160 " fill="#f44336"/>
    <path d="M334 160 365 160 366 161 366 169 365 170 333 170 332 169 332 162 " fill="#f44336"/>
    <path d="M282 148 280 150 280 193 281 194 291 194 291 149 290 148 " fill="#f44336"/>
    <path d="M282 148 290 148 291 149 291 193 290 194 281 194 280 193 280 150 " fill="#f44336"/>
    <path d="M64 147 62 149 62 155 63 156 132 156 132 148 131 147 " fill="#f44336"/>
    <path d="M64 147 131 147 132 148 132 155 131 156 63 156 62 155 62 149 " fill="#f44336"/>
    <path d="M203 123 202 124 197 124 196 125 191 125 190 126 186 126 186 129 187 130 187 134 188 135 188 139 189 140 189 144 190 145 190 149 191 150 191 155 192 156 192 160 193 161 193 165 194 166 194 170 195 171 195 175 196 176 196 180 197 181 197 183 198 184 201 184 202 183 206 183 207 182 211 182 212 181 216 181 217 180 218 180 218 177 217 176 217 173 216 172 216 169 215 168 215 164 214 163 214 160 213 159 213 156 212 155 212 151 211 150 211 147 210 146 210 143 209 142 209 139 208 138 208 134 207 133 207 130 206 129 206 126 205 125 205 124 204 123 "
          fill="#f44336"/>
    <path d="M202 124 203 123 204 123 205 124 205 125 206 126 206 129 207 130 207 133 208 134 208 138 209 139 209 142 210 143 210 146 211 147 211 150 212 151 212 155 213 156 213 159 214 160 214 163 215 164 215 168 216 169 216 172 217 173 217 176 218 177 218 179 216 181 212 181 211 182 207 182 206 183 202 183 201 184 198 184 197 183 197 181 196 180 196 176 195 175 195 171 194 170 194 166 193 165 193 161 192 160 192 156 191 155 191 150 190 149 190 145 189 144 189 140 188 139 188 135 187 134 187 130 186 129 186 127 187 126 190 126 191 125 196 125 197 124 "
          fill="#673ab7"/>
    <path d="M246 46 244 48 244 53 246 55 247 54 251 54 252 55 253 54 258 54 259 55 260 54 261 54 262 55 265 55 266 54 272 54 273 55 274 55 275 54 276 55 277 54 282 54 282 51 283 50 282 49 282 47 281 46 280 47 279 46 278 47 277 46 271 46 270 47 269 46 268 46 267 47 265 47 264 46 262 46 261 47 259 47 258 46 257 46 256 47 247 47 "
          fill="#f54236"/>
    <path d="M246 46 247 47 256 47 257 46 258 46 259 47 261 47 262 46 264 46 265 47 267 47 268 46 269 46 270 47 271 46 277 46 278 47 279 46 280 47 281 46 282 47 282 49 283 50 282 51 282 53 281 54 277 54 276 55 275 54 274 55 273 55 272 54 266 54 265 55 262 55 261 54 260 54 259 55 258 54 253 54 252 55 251 54 247 54 246 55 244 53 244 48 "
          fill="#f54236"/>
    <path d="M165 43 164 44 163 44 162 45 162 49 163 50 163 51 162 52 162 58 163 59 163 61 162 62 162 92 163 93 172 93 172 55 173 54 173 53 172 52 172 46 173 45 171 43 "
          fill="#f44237"/>
    <path d="M164 44 165 43 171 43 173 45 172 46 172 52 173 53 173 54 172 55 172 92 171 93 163 93 162 92 162 62 163 61 163 59 162 58 162 52 163 51 163 50 162 49 162 45 163 44 "
          fill="#673bb7"/>
</svg>