<svg width="1919" height="943" xmlns="http://www.w3.org/2000/svg">
    <path d="M689.0 23.0 686.0 24.0 686.0 180.0 684.0 181.0 292.0 182.0 293.0 536.0 684.0 536.0 686.0 538.0 687.0 723.0 1117.0 723.0 1119.0 721.0 1119.0 536.0 1490.0 535.0 1489.0 181.0 1121.0 181.0 1119.0 180.0 1119.0 24.0 1116.0 22.0 1040.0 22.0 1037.0 24.0 1035.0 22.0 770.0 22.0 768.0 24.0 768.0 50.0 767.0 22.0 689.0 23.0 " fill="#bbbbff"/>
    <path d="M697.064208984375 567.3338012695312 709.8231201171875 564.8801879882812 727.7117919921875 657.9015502929688 714.952880859375 660.3551635742188 697.064208984375 567.3338012695312 "/>
    <path d="M1084.481201171875 653.47607421875 1095.394287109375 559.35009765625 1108.3076171875 560.8472900390625 1097.39453125 654.9732666015625 1084.481201171875 653.47607421875 "/>
    <path d="M1078.0946044921875 83.58975219726562 1090.9608154296875 81.52481079101562 1105.9698486328125 175.04190063476562 1093.1036376953125 177.10684204101562 1078.0946044921875 83.58975219726562 "/>
    <path d="M693.9022827148438 174.63978576660156 704.8601684570312 80.40234375 717.8014526367188 81.90715026855469 706.8435668945312 176.14459228515625 693.9022827148438 174.63978576660156 "/>
    <path d="M346.74588203430176 506.7137451171875 346.63868855664856 504.5317717532077 346.3181404554766 502.370811985511 345.78732478422967 500.2516770379611 345.0513535879952 498.19477533853984 344.1173146717157 496.2199159750296 342.99420334075256 494.34611792266884 341.692835771178 492.59142688102406 340.22574484408705 490.97274148403795 338.60705944710094 489.505650556947 336.85236840545616 488.20428298737244 334.9785703530954 487.0811716564093 333.00371098958516 486.1471327401298 330.9468092901639 485.41116154389533 328.827674342614 484.8803458726484 326.6667145749173 484.55979777147644 324.4847412109375 484.45260429382324 322.3027678469577 484.55979777147644 320.141808079261 484.8803458726484 318.0226731317111 485.41116154389533 315.96577143228984 486.1471327401298 313.9909120687796 487.0811716564093 312.11711401641884 488.20428298737244 310.36242297477406 489.505650556947 308.74373757778795 490.97274148403795 307.276646650697 492.59142688102406 305.97527908112244 494.34611792266884 304.8521677501593 496.2199159750296 303.9181288338798 498.19477533853984 303.18215763764533 500.2516770379611 302.6513419663984 502.37081198551095 302.33079386522644 504.5317717532077 302.22360038757324 506.7137451171875 302.33079386522644 508.8957184811673 302.6513419663984 511.056678248864 303.18215763764533 513.175813196414 303.9181288338798 515.2327148958351 304.8521677501593 517.2075742593454 305.97527908112244 519.0813723117061 307.276646650697 520.8360633533509 308.74373757778795 522.4547487503371 310.36242297477406 523.921839677428 312.11711401641884 525.2232072470025 313.9909120687796 526.3463185779657 315.96577143228984 527.2803574942452 318.0226731317111 528.0163286904797 320.14180807926095 528.5471443617266 322.3027678469577 528.8676924628985 324.4847412109375 528.9748859405518 326.6667145749173 528.8676924628985 328.827674342614 528.5471443617266 330.9468092901639 528.0163286904797 333.00371098958516 527.2803574942452 334.9785703530954 526.3463185779657 336.85236840545616 525.2232072470025 338.60705944710094 523.921839677428 340.22574484408705 522.4547487503371 341.692835771178 520.8360633533509 342.99420334075256 519.0813723117061 344.1173146717157 517.2075742593454 345.0513535879952 515.2327148958352 345.78732478422967 513.175813196414 346.3181404554766 511.05667824886405 346.63868855664856 508.8957184811673 346.74588203430176 506.7137451171875 "/>
    <path d="M683.947151184082 502.4310302734375 683.8397262318697 500.2443451365624 683.5184859362467 498.0787189729191 682.986524016868 495.95500794631516 682.2489635578169 493.89366455487533 681.3129076695058 491.9145406623041 680.1873710818393 490.03669631358605 678.8831933274374 488.27821617633356 677.4129343510112 486.6560353755513 675.7907535502289 485.18577639912513 674.0322734129765 483.8815986447233 672.1544290642585 482.75606205705674 670.1753051716871 481.8200061687456 668.1139617802473 481.0824457096945 665.9902507536434 480.55048379031575 663.8246245900001 480.22924349469287 661.637939453125 480.12181854248047 659.4512543162499 480.22924349469287 657.2856281526066 480.55048379031575 655.1619171260027 481.0824457096945 653.1005737345629 481.8200061687456 651.1214498419915 482.75606205705674 649.2436054932735 483.8815986447233 647.4851253560211 485.18577639912513 645.8629445552388 486.6560353755513 644.3926855788126 488.27821617633356 643.0885078244107 490.03669631358605 641.9629712367442 491.9145406623041 641.0269153484331 493.89366455487533 640.289354889382 495.95500794631516 639.7573929700033 498.0787189729191 639.4361526743803 500.2443451365624 639.328727722168 502.4310302734375 639.4361526743803 504.6177154103126 639.7573929700033 506.7833415739559 640.289354889382 508.90705260055984 641.0269153484331 510.96839599199967 641.9629712367442 512.947519884571 643.0885078244107 514.825364233289 644.3926855788126 516.5838443705414 645.8629445552388 518.2060251713237 647.4851253560211 519.6762841477499 649.2436054932735 520.9804619021518 651.1214498419915 522.1059984898183 653.1005737345628 523.0420543781294 655.1619171260027 523.7796148371805 657.2856281526066 524.3115767565592 659.4512543162499 524.6328170521822 661.637939453125 524.7402420043945 663.8246245900001 524.6328170521822 665.9902507536434 524.3115767565592 668.1139617802473 523.7796148371805 670.1753051716871 523.0420543781294 672.1544290642585 522.1059984898183 674.0322734129765 520.9804619021518 675.7907535502289 519.6762841477499 677.4129343510112 518.2060251713237 678.8831933274374 516.5838443705414 680.1873710818393 514.825364233289 681.3129076695058 512.947519884571 682.2489635578169 510.96839599199967 682.986524016868 508.90705260055984 683.5184859362467 506.7833415739559 683.8397262318697 504.6177154103126 683.947151184082 502.4310302734375 "/>
    <path d="M1477.0001544952393 498.02459716796875 1476.892836403579 495.8400872276035 1476.571915660487 493.6766153121385 1476.0404829081524 491.55501683879385 1475.303656134491 489.4957239606515 1474.3685313841231 487.51856879385195 1473.2441144195866 485.64259242347447 1471.9412339909184 483.8858615274788 1470.4724375488736 482.26529438472016 1468.851870406115 480.7964979426754 1467.0951395101192 479.4936175140072 1465.2191631397418 478.36920054947063 1463.2420079729422 477.4340757991029 1461.1827150948 476.6972490254413 1459.0611166214553 476.1658162731067 1456.8976447059904 475.84489553001475 1454.713134765625 475.7375774383545 1452.5286248252596 475.8448955300147 1450.3651529097947 476.1658162731067 1448.24355443645 476.6972490254413 1446.1842615583078 477.4340757991029 1444.2071063915082 478.36920054947063 1442.3311300211308 479.4936175140072 1440.574399125135 480.7964979426754 1438.9538319823764 482.2652943847201 1437.4850355403316 483.8858615274788 1436.1821551116634 485.64259242347447 1435.0577381471269 487.51856879385195 1434.122613396759 489.4957239606515 1433.3857866230976 491.55501683879385 1432.854353870763 493.6766153121385 1432.533433127671 495.8400872276035 1432.4261150360107 498.02459716796875 1432.533433127671 500.209107108334 1432.854353870763 502.372579023799 1433.3857866230976 504.49417749714365 1434.122613396759 506.553470375286 1435.0577381471269 508.53062554208555 1436.1821551116634 510.40660191246303 1437.4850355403316 512.1633328084587 1438.9538319823764 513.7838999512173 1440.574399125135 515.2526963932621 1442.3311300211308 516.5555768219303 1444.2071063915082 517.6799937864669 1446.1842615583078 518.6151185368346 1448.24355443645 519.3519453104961 1450.3651529097947 519.8833780628308 1452.5286248252596 520.2042988059228 1454.713134765625 520.311616897583 1456.8976447059904 520.2042988059228 1459.0611166214553 519.8833780628308 1461.1827150948 519.3519453104961 1463.2420079729422 518.6151185368346 1465.2191631397418 517.6799937864669 1467.0951395101192 516.5555768219303 1468.851870406115 515.2526963932621 1470.4724375488736 513.7838999512173 1471.9412339909184 512.1633328084587 1473.2441144195866 510.40660191246303 1474.3685313841231 508.53062554208555 1475.303656134491 506.553470375286 1476.0404829081524 504.49417749714365 1476.571915660487 502.372579023799 1476.892836403579 500.209107108334 1477.0001544952393 498.02459716796875 "/>
    <path d="M1169.3768768310547 496.9186096191406 1169.2695181167712 494.73327278628176 1168.9484758970273 492.56898194174994 1168.4168419838988 490.44658038949973 1167.6797363025898 488.38650801670207 1166.7442575837542 486.40860444645705 1165.6194149988391 484.5319179713782 1164.3160413968387 482.7745221081218 1162.846688978037 481.15334153954115 1161.2255084094563 479.6839891207393 1159.4681125461998 478.3806155187389 1157.591426071121 477.25577293382383 1155.6135225008761 476.3202942149883 1153.5534501280783 475.5831885336793 1151.4310485758283 475.0515546205508 1149.2667577312964 474.73051240080696 1147.0814208984375 474.62315368652344 1144.8960840655786 474.73051240080696 1142.731793221047 475.0515546205508 1140.6093916687967 475.5831885336793 1138.5493192959989 476.3202942149883 1136.571415725754 477.25577293382383 1134.6947292506752 478.3806155187389 1132.9373333874187 479.6839891207393 1131.316152818838 481.15334153954115 1129.8468004000363 482.7745221081218 1128.5434267980359 484.5319179713782 1127.4185842131208 486.40860444645705 1126.4831054942852 488.38650801670207 1125.7459998129762 490.44658038949973 1125.2143658998477 492.56898194174994 1124.8933236801038 494.73327278628176 1124.7859649658203 496.9186096191406 1124.8933236801038 499.1039464519995 1125.2143658998477 501.2682372965313 1125.7459998129762 503.39063884878146 1126.4831054942852 505.4507112215792 1127.4185842131208 507.4286147918242 1128.5434267980359 509.30530126690303 1129.8468004000363 511.06269713015945 1131.316152818838 512.68387769874 1132.9373333874187 514.153230117542 1134.6947292506752 515.4566037195423 1136.571415725754 516.5814463044574 1138.5493192959989 517.516925023293 1140.6093916687967 518.254030704602 1142.7317932210467 518.7856646177304 1144.8960840655786 519.1067068374742 1147.0814208984375 519.2140655517578 1149.2667577312964 519.1067068374742 1151.4310485758283 518.7856646177304 1153.5534501280783 518.254030704602 1155.6135225008761 517.516925023293 1157.591426071121 516.5814463044574 1159.4681125461998 515.4566037195423 1161.2255084094563 514.153230117542 1162.846688978037 512.68387769874 1164.3160413968387 511.0626971301595 1165.6194149988391 509.30530126690303 1166.7442575837542 507.4286147918242 1167.6797363025898 505.4507112215792 1168.4168419838988 503.3906388487815 1168.9484758970273 501.2682372965313 1169.2695181167712 499.1039464519995 1169.3768768310547 496.9186096191406 "/>
    <path d="M1162.8877906799316 222.01902770996094 1162.7803705954539 219.8324416581009 1162.459144856156 217.6669136252298 1161.9272070415072 215.54329883010223 1161.1896800034494 213.4820488440812 1160.2536665305324 211.50301463132593 1159.1281809441773 209.62525537315543 1157.8240622858339 207.86685491771348 1156.3538699310855 206.24474762262548 1154.7317626359975 204.7745552678772 1152.9733621805556 203.47043660953366 1151.095602922385 202.3449510231786 1149.1165687096297 201.40893755026156 1147.0553187236087 200.67141051220375 1144.931703928481 200.13947269755494 1142.76617589561 199.81824695825705 1140.57958984375 199.7108268737793 1138.39300379189 199.81824695825702 1136.227475759019 200.13947269755494 1134.1038609638913 200.67141051220375 1132.0426109778703 201.40893755026156 1130.063576765115 202.3449510231786 1128.1858175069444 203.47043660953366 1126.4274170515025 204.7745552678772 1124.8053097564145 206.24474762262548 1123.3351174016661 207.86685491771348 1122.0309987433227 209.62525537315543 1120.9055131569676 211.50301463132593 1119.9694996840506 213.4820488440812 1119.2319726459928 215.54329883010223 1118.700034831344 217.6669136252298 1118.3788090920461 219.8324416581009 1118.2713890075684 222.01902770996094 1118.3788090920461 224.20561376182098 1118.700034831344 226.37114179469208 1119.2319726459928 228.49475658981964 1119.9694996840506 230.55600657584068 1120.9055131569676 232.53504078859595 1122.0309987433227 234.41280004676645 1123.3351174016661 236.1712005022084 1124.8053097564145 237.7933077972964 1126.4274170515025 239.26350015204468 1128.1858175069444 240.5676188103882 1130.063576765115 241.69310439674328 1132.0426109778703 242.62911786966032 1134.1038609638913 243.36664490771813 1136.227475759019 243.89858272236694 1138.39300379189 244.21980846166485 1140.57958984375 244.32722854614258 1142.76617589561 244.21980846166485 1144.931703928481 243.89858272236694 1147.0553187236087 243.36664490771813 1149.1165687096297 242.62911786966032 1151.095602922385 241.69310439674328 1152.9733621805556 240.5676188103882 1154.7317626359975 239.26350015204468 1156.3538699310855 237.7933077972964 1157.8240622858339 236.1712005022084 1159.1281809441773 234.41280004676645 1160.2536665305324 232.53504078859595 1161.1896800034494 230.5560065758407 1161.9272070415072 228.49475658981964 1162.459144856156 226.37114179469208 1162.7803705954539 224.20561376182098 1162.8877906799316 222.01902770996094 "/>
    <path d="M351.2140712738037 220.91860961914062 351.10671253196693 218.73327222542318 350.78567022982884 216.56898082543415 350.2540361802585 214.4465787284775 349.51693030977407 212.3865058269699 348.58145135085135 210.4086017491033 347.45660847724963 208.53191479237984 346.15323454074326 206.77451847809428 344.68388174483755 205.1533374934437 343.06270076018694 203.683984697538 341.3053044459014 202.38061076103165 339.42861748917795 201.2557678874299 337.4507134113113 200.32028892850718 335.39064050980375 199.58318305802274 333.2682384128471 199.0515490084524 331.1039470128581 198.7305067063143 328.9186096191406 198.62314796447754 326.73327222542315 198.7305067063143 324.56898082543415 199.0515490084524 322.4465787284775 199.58318305802274 320.38650582696994 200.32028892850718 318.4086017491033 201.2557678874299 316.53191479237984 202.38061076103165 314.7745184780943 203.683984697538 313.1533374934437 205.1533374934437 311.683984697538 206.77451847809428 310.3806107610316 208.53191479237984 309.2557678874299 210.4086017491033 308.3202889285072 212.3865058269699 307.58318305802277 214.4465787284775 307.0515490084524 216.56898082543415 306.7305067063143 218.73327222542318 306.62314796447754 220.91860961914062 306.7305067063143 223.10394701285807 307.0515490084524 225.2682384128471 307.58318305802277 227.39064050980375 308.3202889285072 229.45071341131134 309.2557678874299 231.42861748917795 310.3806107610316 233.30530444590138 311.683984697538 235.06270076018697 313.1533374934437 236.68388174483755 314.77451847809425 238.15323454074326 316.53191479237984 239.4566084772496 318.4086017491033 240.58145135085135 320.3865058269699 241.51693030977407 322.4465787284775 242.2540361802585 324.56898082543415 242.78567022982884 326.7332722254232 243.10671253196696 328.9186096191406 243.2140712738037 331.10394701285804 243.10671253196696 333.2682384128471 242.78567022982884 335.39064050980375 242.2540361802585 337.45071341131137 241.51693030977407 339.42861748917795 240.58145135085135 341.3053044459014 239.4566084772496 343.06270076018694 238.15323454074326 344.68388174483755 236.68388174483755 346.15323454074326 235.06270076018697 347.45660847724963 233.3053044459014 348.58145135085135 231.42861748917798 349.51693030977407 229.45071341131134 350.2540361802585 227.39064050980375 350.78567022982884 225.2682384128471 351.10671253196693 223.10394701285807 351.2140712738037 220.91860961914062 "/>
    <path d="M686.173095703125 218.77272033691406 686.0656696120463 216.5860120178845 685.7444259107928 214.42036289534354 685.2124583518167 212.29662935420552 684.4748900735144 210.23526410942242 683.5388242616017 208.2561192351584 682.4132757415529 206.3782549784632 681.1090841609034 204.61975619867385 679.6388095975186 202.99755820033297 678.0166115991777 201.5272836369482 676.2581128193883 200.22309205629873 674.3802485626932 199.09754353624987 672.4011036884291 198.16147772433712 670.3397384436461 197.42390944603483 668.216004902508 196.89194188705883 666.050355779967 196.57069818580518 663.8636474609375 196.46327209472656 661.676939141908 196.57069818580516 659.511290019367 196.89194188705883 657.3875564782289 197.42390944603483 655.3261912334459 198.16147772433712 653.3470463591818 199.09754353624987 651.4691821024867 200.22309205629873 649.7106833226973 201.5272836369482 648.0884853243564 202.99755820033297 646.6182107609716 204.61975619867385 645.3140191803221 206.3782549784632 644.1884706602733 208.2561192351584 643.2524048483606 210.23526410942242 642.5148365700583 212.29662935420552 641.9828690110822 214.42036289534354 641.6616253098287 216.58601201788449 641.55419921875 218.77272033691406 641.6616253098287 220.9594286559436 641.9828690110822 223.12507777848458 642.5148365700583 225.24881131962258 643.2524048483606 227.31017656440568 644.1884706602733 229.28932143866973 645.3140191803221 231.16718569536494 646.6182107609716 232.92568447515424 648.0884853243564 234.54788247349515 649.7106833226973 236.01815703687993 651.4691821024867 237.3223486175294 653.3470463591818 238.44789713757825 655.3261912334459 239.38396294949098 657.3875564782289 240.1215312277933 659.511290019367 240.6534987867693 661.676939141908 240.97474248802297 663.8636474609375 241.08216857910156 666.050355779967 240.97474248802297 668.216004902508 240.6534987867693 670.3397384436461 240.1215312277933 672.4011036884291 239.383962949491 674.3802485626932 238.44789713757825 676.2581128193883 237.3223486175294 678.0166115991777 236.01815703687993 679.6388095975186 234.54788247349515 681.1090841609034 232.92568447515427 682.4132757415529 231.16718569536494 683.5388242616017 229.28932143866973 684.4748900735144 227.3101765644057 685.2124583518167 225.2488113196226 685.7444259107928 223.12507777848458 686.0656696120463 220.9594286559436 686.173095703125 218.77272033691406 "/>
    <path d="M1475.976697921753 213.305908203125 1475.869276468799 211.11929429528902 1475.548046637251 208.95373867471028 1475.0161020459896 206.83009682582804 1474.2785656122185 204.76882058054773 1473.3425402149737 202.78976115591968 1472.217040290514 200.91197797606694 1470.912905018373 199.15355511951222 1469.4426939341342 197.53142715961584 1467.8205659742378 196.06121607537696 1466.062143117683 194.75708080323594 1464.1843599378303 193.6315808787763 1462.2053005132022 192.6955554815315 1460.144024267922 191.95801904776047 1458.0203824190398 191.42607445649892 1455.8548267984609 191.10484462495117 1453.668212890625 190.99742317199707 1451.4815989827891 191.10484462495117 1449.3160433622102 191.42607445649892 1447.192401513328 191.95801904776047 1445.1311252680478 192.6955554815315 1443.1520658434197 193.6315808787763 1441.274282663567 194.7570808032359 1439.5158598070122 196.06121607537696 1437.8937318471158 197.53142715961584 1436.423520762877 199.15355511951222 1435.119385490736 200.91197797606694 1433.9938855662763 202.78976115591968 1433.0578601690315 204.76882058054773 1432.3203237352604 206.83009682582804 1431.788379143999 208.95373867471028 1431.467149312451 211.11929429528902 1431.359727859497 213.305908203125 1431.467149312451 215.49252211096098 1431.788379143999 217.65807773153972 1432.3203237352604 219.78171958042196 1433.0578601690315 221.84299582570225 1433.9938855662763 223.82205525033032 1435.119385490736 225.69983843018304 1436.423520762877 227.45826128673778 1437.8937318471158 229.08038924663416 1439.5158598070122 230.550600330873 1441.274282663567 231.85473560301406 1443.1520658434197 232.9802355274737 1445.1311252680478 233.9162609247185 1447.192401513328 234.65379735848953 1449.3160433622102 235.18574194975108 1451.4815989827891 235.50697178129883 1453.668212890625 235.61439323425293 1455.8548267984609 235.50697178129883 1458.0203824190398 235.18574194975108 1460.144024267922 234.65379735848953 1462.2053005132022 233.9162609247185 1464.1843599378303 232.9802355274737 1466.062143117683 231.8547356030141 1467.8205659742378 230.55060033087304 1469.4426939341342 229.08038924663416 1470.912905018373 227.45826128673778 1472.217040290514 225.69983843018306 1473.3425402149737 223.82205525033032 1474.2785656122185 221.84299582570227 1475.0161020459896 219.781719580422 1475.548046637251 217.65807773153975 1475.869276468799 215.49252211096098 1475.976697921753 213.305908203125 "/>
</svg>