<svg width="1919" height="943" xmlns="http://www.w3.org/2000/svg">
    <path d="M236.0 12.0 682.0 26.0 684.0 28.0 684.0 31.0 681.0 123.0 994.0 134.0 1348.0 144.0 1349.0 167.0 1347.0 199.0 1329.0 838.0 1295.0 839.0 948.0 829.0 946.0 827.0 946.0 822.0 954.0 551.0 940.0 550.0 669.0 541.0 667.0 543.0 666.0 564.0 660.0 782.0 658.0 795.0 212.0 781.0 210.0 779.0 210.0 762.0 218.0 542.0 217.0 523.0 228.0 229.0 234.0 14.0 236.0 12.0 " fill="white"/>
    <path d="M1260.54150390625 831.29443359375 1261.745849609375 796.3704833984375 1326.083251953125 798.5889892578125 1324.87890625 833.512939453125 1260.54150390625 831.29443359375 "/>
    <path d="M950.740234375 824.7913208007812 951.904541015625 789.8634643554688 1016.266357421875 792.0088500976562 1015.10205078125 826.9367065429688 950.740234375 824.7913208007812 "/>
    <path d="M590.7078857421875 785.47265625 591.912109375 750.5487060546875 656.2838134765625 752.7684326171875 655.07958984375 787.6923828125 590.7078857421875 785.47265625 "/>
    <path d="M217.64132690429688 772.4014282226562 218.84561157226562 737.4774780273438 283.1828918457031 739.6959838867188 281.9786071777344 774.6199340820312 217.64132690429688 772.4014282226562 "/>
    <path d="M1156.424840927124 500.2291259765625 1156.3224150924743 498.14420021538757 1156.0161240053044 496.0793534290291 1155.5089174162197 494.05447122079977 1154.8056800019401 492.0890543132781 1153.913184323194 490.2020307456897 1152.8400256012553 488.4115735865424 1151.596538941265 486.73492591704223 1150.1946997995171 485.1882347707954 1148.6480086532702 483.7863956290476 1146.9713609837702 482.5429089690571 1145.1809038246229 481.46975024711855 1143.2938802570343 480.57725456837244 1141.3284633495127 479.8740171540929 1139.3035811412833 479.36681056500805 1137.2387343549249 479.0605194778382 1135.15380859375 478.9580936431885 1133.0688828325751 479.0605194778382 1131.0040360462167 479.36681056500805 1128.9791538379873 479.8740171540929 1127.0137369304657 480.57725456837244 1125.1267133628771 481.46975024711855 1123.3362562037298 482.54290896905707 1121.6596085342298 483.7863956290476 1120.1129173879829 485.1882347707954 1118.711078246235 486.73492591704223 1117.4675915862447 488.4115735865424 1116.394432864306 490.2020307456897 1115.5019371855599 492.0890543132781 1114.7986997712803 494.05447122079977 1114.2914931821956 496.0793534290291 1113.9852020950257 498.14420021538757 1113.882776260376 500.2291259765625 1113.9852020950257 502.31405173773743 1114.2914931821956 504.3788985240959 1114.7986997712803 506.40378073232523 1115.5019371855599 508.3691976398469 1116.394432864306 510.2562212074353 1117.4675915862447 512.0466783665826 1118.711078246235 513.7233260360828 1120.1129173879829 515.2700171823296 1121.6596085342298 516.6718563240773 1123.3362562037298 517.9153429840679 1125.1267133628771 518.9885017060064 1127.0137369304657 519.8809973847525 1128.9791538379873 520.5842347990321 1131.0040360462165 521.0914413881169 1133.0688828325751 521.3977324752868 1135.15380859375 521.5001583099365 1137.2387343549249 521.3977324752868 1139.3035811412833 521.0914413881169 1141.3284633495127 520.5842347990321 1143.2938802570343 519.8809973847525 1145.1809038246229 518.9885017060064 1146.9713609837702 517.9153429840679 1148.6480086532702 516.6718563240773 1150.1946997995171 515.2700171823296 1151.596538941265 513.7233260360828 1152.8400256012553 512.0466783665826 1153.913184323194 510.2562212074353 1154.8056800019401 508.3691976398469 1155.5089174162197 506.40378073232523 1156.0161240053044 504.3788985240959 1156.3224150924743 502.31405173773743 1156.424840927124 500.2291259765625 "/>
    <path d="M952.3172969818115 493.6565856933594 952.2150510145493 491.57532121696727 951.9092977973206 489.51410045521766 951.4029819007492 487.4927740908242 950.7009794236993 485.5308086016453 949.8100510337786 483.6470987878612 948.7387768584131 481.85978580471914 947.4974738535294 480.18608245329153 946.09809644563 478.64210741179187 944.5541214041303 477.24273000389246 942.8804180527027 476.0014269990088 941.0931050695607 474.93015282364325 939.2093952557766 474.0392244337226 937.2474297665976 473.33722195667275 935.2261034022042 472.83090606010126 933.1648826404546 472.5251528428726 931.0836181640625 472.42290687561035 929.0023536876704 472.5251528428726 926.9411329259208 472.83090606010126 924.9198065615274 473.33722195667275 922.9578410723484 474.0392244337226 921.0741312585643 474.93015282364325 919.2868182754223 476.0014269990088 917.6131149239947 477.24273000389246 916.069139882495 478.64210741179187 914.6697624745956 480.18608245329153 913.4284594697119 481.85978580471914 912.3571852943464 483.6470987878612 911.4662569044257 485.5308086016453 910.7642544273758 487.4927740908242 910.2579385308044 489.51410045521766 909.9521853135757 491.57532121696727 909.8499393463135 493.6565856933594 909.9521853135757 495.7378501697515 910.2579385308044 497.7990709315011 910.7642544273758 499.82039729589457 911.4662569044257 501.7823627850735 912.3571852943464 503.66607259885757 913.4284594697119 505.4533855819996 914.6697624745956 507.1270889334272 916.069139882495 508.6710639749269 917.6131149239947 510.0704413828263 919.2868182754223 511.31174438770995 921.0741312585643 512.3830185630754 922.9578410723484 513.2739469529962 924.9198065615274 513.9759494300461 926.9411329259208 514.4822653266175 929.0023536876704 514.7880185438462 931.0836181640625 514.8902645111084 933.1648826404546 514.7880185438462 935.2261034022042 514.4822653266175 937.2474297665976 513.9759494300461 939.2093952557766 513.2739469529962 941.0931050695607 512.3830185630754 942.8804180527027 511.31174438770995 944.5541214041303 510.0704413828263 946.09809644563 508.6710639749269 947.4974738535294 507.1270889334272 948.7387768584131 505.4533855819996 949.8100510337786 503.66607259885757 950.7009794236993 501.7823627850735 951.4029819007492 499.82039729589457 951.9092977973206 497.7990709315011 952.2150510145493 495.7378501697515 952.3172969818115 493.6565856933594 "/>
    <path d="M710.2373352050781 483.8571472167969 710.1350716313115 481.77552435177483 709.8292657641299 479.71394865287374 709.3228626812049 477.6922742210459 708.6207393210531 475.72997088622964 707.7296575154523 473.8459367022432 706.6581988693055 472.0583159481962 705.4166821150939 470.38432438916317 704.0170637378426 468.84008347895434 702.4728228276338 467.440465101703 700.7988312686007 466.19894834749135 699.0112105145537 465.12748970134453 697.1271763305673 464.2364078957438 695.1648729957509 463.53428453559195 693.1431985639232 463.0278814526669 691.081622865022 462.72207558548536 689.0 462.61981201171875 686.918377134978 462.72207558548536 684.8568014360768 463.0278814526669 682.8351270042491 463.53428453559195 680.8728236694327 464.2364078957438 678.9887894854463 465.12748970134453 677.2011687313993 466.19894834749135 675.5271771723662 467.440465101703 673.9829362621574 468.84008347895434 672.5833178849061 470.38432438916317 671.3418011306945 472.0583159481962 670.2703424845477 473.84593670224314 669.3792606789469 475.72997088622964 668.6771373187951 477.6922742210459 668.1707342358701 479.71394865287374 667.8649283686885 481.77552435177483 667.7626647949219 483.8571472167969 667.8649283686885 485.9387700818189 668.1707342358701 488.00034578072 668.6771373187951 490.02202021254783 669.3792606789469 491.9843235473641 670.2703424845477 493.86835773135056 671.3418011306945 495.6559784853975 672.5833178849061 497.3299700444306 673.9829362621574 498.8742109546394 675.5271771723662 500.27382933189074 677.2011687313993 501.5153460861024 678.9887894854463 502.5868047322492 680.8728236694327 503.47788653784994 682.8351270042491 504.1800098980018 684.8568014360768 504.68641298092683 686.918377134978 504.9922188481084 689.0 505.094482421875 691.081622865022 504.9922188481084 693.1431985639232 504.68641298092683 695.1648729957509 504.1800098980018 697.1271763305673 503.47788653784994 699.0112105145537 502.5868047322492 700.7988312686007 501.5153460861024 702.4728228276338 500.27382933189074 704.0170637378426 498.8742109546394 705.4166821150939 497.3299700444306 706.6581988693055 495.65597848539755 707.7296575154523 493.8683577313506 708.6207393210531 491.98432354736417 709.3228626812049 490.02202021254783 709.8292657641299 488.00034578072 710.1350716313115 485.9387700818189 710.2373352050781 483.8571472167969 "/>
    <path d="M1270.3563232421875 487.6674499511719 1271.5606689453125 452.7434387207031 1335.9324951171875 454.9631652832031 1334.7281494140625 489.8871765136719 1270.3563232421875 487.6674499511719 "/>
    <path d="M229.64132690429688 400.4014587402344 230.84561157226562 365.4774475097656 295.1828918457031 367.6959533691406 293.9786071777344 402.6199645996094 229.64132690429688 400.4014587402344 "/>
    <path d="M954.5433139801025 338.7400817871094 954.440881073461 336.6550120722333 954.1345688384226 334.59002271852654 953.6273272292584 332.5650007023033 952.924041259951 330.59944809256945 952.0314839588399 328.712294235437 950.9582511406564 326.9217134541735 949.7146786241283 325.24495002053345 948.3127426923957 323.69815208299497 946.7659447548572 322.29621615126234 945.0891813212171 321.05264363473424 943.2986005399536 319.9794108165507 941.4114466828212 319.08685351543966 939.4458940730873 318.38356754613216 937.420872056864 317.87632593696793 935.3558827031574 317.57001370192967 933.2708129882812 317.4675807952881 931.1857432734051 317.57001370192967 929.1207539196985 317.87632593696793 927.0957319034752 318.38356754613216 925.1301792937413 319.08685351543966 923.243025436609 319.9794108165507 921.4524446553454 321.05264363473424 919.7756812217053 322.29621615126234 918.2288832841668 323.69815208299497 916.8269473524342 325.24495002053345 915.583374835906 326.9217134541735 914.5101420177226 328.712294235437 913.6175847166115 330.59944809256945 912.9142987473041 332.5650007023033 912.4070571381399 334.59002271852654 912.1007449031016 336.6550120722333 911.99831199646 338.7400817871094 912.1007449031015 340.82515150198543 912.4070571381399 342.8901408556922 912.9142987473041 344.91516287191547 913.6175847166115 346.8807154816493 914.5101420177226 348.76786933878174 915.583374835906 350.5584501200452 916.8269473524342 352.2352135536853 918.2288832841668 353.7820114912238 919.7756812217053 355.1839474229564 921.4524446553454 356.4275199394845 923.243025436609 357.50075275766807 925.1301792937413 358.3933100587791 927.0957319034752 359.0965960280866 929.1207539196985 359.6038376372508 931.1857432734051 359.9101498722891 933.2708129882812 360.01258277893066 935.3558827031572 359.9101498722891 937.420872056864 359.6038376372508 939.4458940730873 359.0965960280866 941.4114466828212 358.3933100587791 943.2986005399536 357.50075275766807 945.0891813212171 356.4275199394845 946.7659447548572 355.1839474229564 948.3127426923957 353.7820114912238 949.7146786241283 352.2352135536853 950.9582511406564 350.5584501200452 952.0314839588399 348.76786933878174 952.924041259951 346.88071548164936 953.6273272292584 344.91516287191547 954.1345688384226 342.8901408556922 954.440881073461 340.82515150198543 954.5433139801025 338.7400817871094 "/>
    <path d="M710.2133026123047 330.0 710.111154762041 327.9207327409963 709.8056949508879 325.86148996233993 709.2998649238078 323.84210329768587 708.5985361004765 321.8820205445239 707.708462660848 320.00011837125714 706.6382164987095 318.2145205245665 705.3981046696586 316.54242328782277 704.0000701285229 314.99992987147704 702.4575767121772 313.60189533034145 700.7854794754335 312.36178350129046 698.9998816287429 311.291537339152 697.1179794554761 310.4014638995235 695.1578967023141 309.7001350761922 693.1385100376601 309.1943050491122 691.0792672590037 308.88884523795895 689.0 308.7866973876953 686.9207327409963 308.88884523795895 684.8614899623399 309.1943050491122 682.8421032976859 309.7001350761922 680.8820205445239 310.4014638995235 679.0001183712571 311.291537339152 677.2145205245665 312.36178350129046 675.5424232878228 313.6018953303414 673.9999298714771 314.99992987147704 672.6018953303414 316.54242328782277 671.3617835012905 318.2145205245665 670.291537339152 320.00011837125714 669.4014638995235 321.8820205445239 668.7001350761922 323.84210329768587 668.1943050491121 325.8614899623399 667.888845237959 327.9207327409963 667.7866973876953 330.0 667.888845237959 332.0792672590037 668.1943050491121 334.1385100376601 668.7001350761922 336.1578967023141 669.4014638995235 338.1179794554761 670.291537339152 339.99988162874286 671.3617835012905 341.7854794754334 672.6018953303414 343.45757671217723 673.9999298714771 345.00007012852296 675.5424232878228 346.39810466965855 677.2145205245665 347.63821649870954 679.0001183712571 348.708462660848 680.8820205445239 349.5985361004765 682.8421032976859 350.2998649238078 684.8614899623399 350.8056949508878 686.9207327409963 351.11115476204105 689.0 351.2133026123047 691.0792672590037 351.11115476204105 693.1385100376601 350.8056949508878 695.1578967023141 350.2998649238078 697.1179794554761 349.5985361004765 698.9998816287429 348.708462660848 700.7854794754335 347.63821649870954 702.4575767121772 346.39810466965855 704.0000701285229 345.00007012852296 705.3981046696586 343.45757671217723 706.6382164987095 341.7854794754335 707.708462660848 339.99988162874286 708.5985361004765 338.1179794554761 709.2998649238078 336.15789670231413 709.8056949508879 334.1385100376601 710.111154762041 332.0792672590037 710.2133026123047 330.0 "/>
    <path d="M487.7127933502197 312.5458984375 487.6105885841983 310.46547263163154 487.3049585739016 308.40508246355006 486.7988467034032 306.384570616898 486.09712710668487 304.42339572528266 485.2065577270619 302.5404449749976 484.1357152344949 300.7538522110938 482.8949124275693 299.08082329853835 481.49609891560755 297.53747042032995 479.95274603739915 296.1386569083682 478.2797171248437 294.8978541014426 476.4931243609399 293.8270116088756 474.61017361065484 292.93644222925263 472.6489987190395 292.2347226325343 470.62848687238744 291.7286107620359 468.56809670430596 291.4229807517392 466.4876708984375 291.3207759857178 464.40724509256904 291.4229807517392 462.34685492448756 291.7286107620359 460.3263430778355 292.2347226325343 458.36516818622016 292.93644222925263 456.4822174359351 293.8270116088756 454.6956246720313 294.8978541014426 453.02259575947585 296.1386569083682 451.47924288126745 297.53747042032995 450.0804293693057 299.08082329853835 448.8396265623801 300.7538522110938 447.7687840698131 302.5404449749976 446.87821469019013 304.42339572528266 446.1764950934718 306.384570616898 445.6703832229734 308.40508246355006 445.3647532126767 310.46547263163154 445.2625484466553 312.5458984375 445.3647532126767 314.62632424336846 445.6703832229734 316.68671441144994 446.1764950934718 318.707226258102 446.87821469019013 320.66840114971734 447.7687840698131 322.5513519000024 448.8396265623801 324.3379446639062 450.0804293693057 326.01097357646165 451.47924288126745 327.55432645467005 453.02259575947585 328.9531399666318 454.6956246720313 330.1939427735574 456.4822174359351 331.2647852661244 458.36516818622016 332.15535464574737 460.3263430778355 332.8570742424657 462.34685492448756 333.3631861129641 464.40724509256904 333.6688161232608 466.4876708984375 333.7710208892822 468.56809670430596 333.6688161232608 470.62848687238744 333.3631861129641 472.6489987190395 332.8570742424657 474.61017361065484 332.15535464574737 476.4931243609399 331.2647852661244 478.2797171248437 330.1939427735574 479.95274603739915 328.9531399666318 481.49609891560755 327.55432645467005 482.8949124275693 326.01097357646165 484.1357152344949 324.3379446639062 485.2065577270619 322.5513519000024 486.09712710668487 320.66840114971734 486.7988467034032 318.707226258102 487.3049585739016 316.68671441144994 487.6105885841983 314.62632424336846 487.7127933502197 312.5458984375 "/>
    <path d="M1272.53564453125 185.46673583984375 1273.73876953125 150.57717895507812 1338.076171875 152.79571533203125 1336.873046875 187.68527221679688 1272.53564453125 185.46673583984375 "/>
    <path d="M1119.826416015625 180.0284881591797 1121.03076171875 145.10450744628906 1185.3681640625 147.3230438232422 1184.163818359375 182.2470245361328 1119.826416015625 180.0284881591797 "/>
    <path d="M974.740234375 176.7913360595703 975.904541015625 141.8634796142578 1040.266357421875 144.0088653564453 1039.10205078125 178.9367218017578 974.740234375 176.7913360595703 "/>
    <path d="M828.5415649414062 171.29452514648438 829.7457885742188 136.37054443359375 894.0830688476562 138.58908081054688 892.8788452148438 173.5130615234375 828.5415649414062 171.29452514648438 "/>
    <path d="M680.253662109375 165.8829345703125 681.3424072265625 131.04196166992188 745.52978515625 133.04782104492188 744.4410400390625 167.8887939453125 680.253662109375 165.8829345703125 "/>
    <path d="M609.2974243164062 72.07659149169922 610.4617309570312 37.14872360229492 674.6570434570312 39.28856658935547 673.4927368164062 74.2164306640625 609.2974243164062 72.07659149169922 "/>
    <path d="M239.44729614257812 54.58157730102539 240.61044311523438 19.687015533447266 304.9722595214844 21.832408905029297 303.8091125488281 56.72697067260742 239.44729614257812 54.58157730102539 "/>
</svg>