<svg width="400" height="250" xmlns="http://www.w3.org/2000/svg">
    <path d="M32.0 34.0 30.0 36.0 31.0 43.0 30.0 45.0 31.0 54.0 30.0 55.0 30.0 92.0 31.0 93.0 30.0 103.0 31.0 104.0 171.0 104.0 172.0 105.0 172.0 134.0 171.0 135.0 32.0 135.0 30.0 137.0 30.0 201.0 31.0 202.0 372.0 202.0 372.0 136.0 371.0 135.0 245.0 135.0 244.0 134.0 244.0 106.0 246.0 104.0 370.0 104.0 370.0 61.0 371.0 60.0 370.0 37.0 371.0 36.0 369.0 34.0 365.0 35.0 364.0 34.0 361.0 35.0 357.0 34.0 353.0 35.0 352.0 34.0 350.0 35.0 348.0 34.0 338.0 35.0 337.0 34.0 335.0 35.0 329.0 34.0 328.0 35.0 327.0 34.0 325.0 35.0 323.0 34.0 313.0 35.0 312.0 34.0 307.0 35.0 306.0 34.0 300.0 35.0 297.0 34.0 287.0 34.0 286.0 35.0 284.0 34.0 275.0 35.0 274.0 34.0 264.0 34.0 263.0 35.0 262.0 34.0 254.0 35.0 252.0 34.0 249.0 35.0 248.0 34.0 240.0 35.0 239.0 34.0 237.0 35.0 236.0 34.0 232.0 35.0 228.0 34.0 226.0 35.0 224.0 34.0 219.0 35.0 218.0 34.0 216.0 35.0 212.0 34.0 208.0 35.0 207.0 34.0 206.0 35.0 205.0 34.0 204.0 35.0 200.0 34.0 196.0 35.0 194.0 34.0 191.0 35.0 189.0 34.0 184.0 35.0 177.0 34.0 173.0 35.0 171.0 34.0 164.0 35.0 162.0 34.0 156.0 35.0 148.0 34.0 144.0 35.0 138.0 34.0 134.0 35.0 131.0 34.0 130.0 35.0 128.0 34.0 125.0 35.0 124.0 34.0 121.0 35.0 118.0 34.0 70.0 35.0 68.0 34.0 65.0 35.0 61.0 34.0 59.0 35.0 57.0 34.0 55.0 35.0 52.0 34.0 49.0 35.0 48.0 34.0 45.0 35.0 40.0 34.0 35.0 35.0 32.0 34.0 "/>
    <path d="M32.0 43.0 38.0 44.0 38.0 60.0 39.0 61.0 38.0 62.0 38.0 92.0 37.0 93.0 30.0 92.0 30.0 55.0 31.0 54.0 30.0 45.0 32.0 43.0 "/>
    <path d="M363.0 42.0 370.0 43.0 371.0 60.0 370.0 61.0 370.0 95.0 369.0 96.0 361.0 95.0 361.0 58.0 362.0 57.0 361.0 44.0 363.0 42.0 "/>
    <path d="M32.0 34.0 35.0 35.0 40.0 34.0 45.0 35.0 48.0 34.0 49.0 35.0 52.0 34.0 55.0 35.0 57.0 34.0 59.0 35.0 61.0 34.0 65.0 35.0 68.0 34.0 70.0 35.0 77.0 34.0 79.0 35.0 84.0 34.0 86.0 35.0 88.0 34.0 96.0 35.0 98.0 34.0 101.0 35.0 105.0 34.0 109.0 35.0 110.0 34.0 119.0 35.0 122.0 34.0 125.0 35.0 126.0 34.0 129.0 35.0 131.0 34.0 132.0 35.0 135.0 34.0 139.0 35.0 145.0 34.0 149.0 35.0 157.0 34.0 163.0 35.0 165.0 34.0 172.0 35.0 174.0 34.0 178.0 35.0 185.0 34.0 190.0 35.0 192.0 34.0 195.0 35.0 197.0 34.0 201.0 35.0 205.0 34.0 206.0 35.0 207.0 34.0 208.0 35.0 209.0 34.0 213.0 35.0 217.0 34.0 219.0 35.0 220.0 34.0 225.0 35.0 227.0 34.0 229.0 35.0 233.0 34.0 237.0 35.0 238.0 34.0 240.0 35.0 241.0 34.0 249.0 35.0 250.0 34.0 253.0 35.0 255.0 34.0 263.0 35.0 264.0 34.0 274.0 34.0 275.0 35.0 276.0 34.0 285.0 35.0 287.0 34.0 297.0 34.0 298.0 35.0 301.0 34.0 307.0 35.0 308.0 34.0 313.0 35.0 314.0 34.0 324.0 35.0 326.0 34.0 328.0 35.0 329.0 34.0 330.0 35.0 348.0 34.0 350.0 35.0 352.0 34.0 353.0 35.0 357.0 34.0 361.0 35.0 364.0 34.0 365.0 35.0 369.0 34.0 371.0 36.0 370.0 37.0 371.0 40.0 369.0 42.0 363.0 42.0 361.0 44.0 362.0 46.0 361.0 47.0 362.0 56.0 361.0 58.0 361.0 95.0 370.0 97.0 369.0 104.0 246.0 104.0 244.0 106.0 244.0 134.0 245.0 135.0 371.0 135.0 372.0 136.0 372.0 201.0 371.0 202.0 31.0 202.0 30.0 201.0 30.0 137.0 32.0 135.0 172.0 135.0 172.0 105.0 171.0 104.0 31.0 104.0 30.0 95.0 32.0 93.0 38.0 93.0 38.0 62.0 39.0 61.0 38.0 60.0 38.0 44.0 30.0 42.0 30.0 36.0 32.0 34.0 " fill="white"/>
    <path d="M334.0 160.0 332.0 162.0 333.0 170.0 366.0 170.0 365.0 160.0 334.0 160.0 "/>
    <path d="M334.0 160.0 365.0 160.0 366.0 169.0 365.0 170.0 333.0 170.0 332.0 162.0 334.0 160.0 "/>
    <path d="M282.0 148.0 280.0 150.0 280.0 193.0 281.0 194.0 291.0 194.0 291.0 149.0 282.0 148.0 "/>
    <path d="M282.0 148.0 291.0 149.0 291.0 193.0 290.0 194.0 280.0 193.0 280.0 150.0 282.0 148.0 "/>
    <path d="M64.0 147.0 62.0 149.0 63.0 156.0 132.0 156.0 131.0 147.0 64.0 147.0 "/>
    <path d="M64.0 147.0 131.0 147.0 132.0 155.0 131.0 156.0 63.0 156.0 62.0 149.0 64.0 147.0 "/>
    <path d="M203.0 123.0 186.0 126.0 196.0 180.0 198.0 184.0 218.0 180.0 206.0 126.0 203.0 123.0 "/>
    <path d="M202.0 124.0 204.0 123.0 206.0 126.0 218.0 179.0 216.0 181.0 198.0 184.0 196.0 180.0 186.0 127.0 191.0 125.0 202.0 124.0 "/>
    <path d="M246.0 46.0 244.0 48.0 244.0 53.0 246.0 55.0 247.0 54.0 252.0 55.0 253.0 54.0 259.0 55.0 260.0 54.0 262.0 55.0 266.0 54.0 274.0 55.0 275.0 54.0 276.0 55.0 282.0 54.0 283.0 50.0 281.0 46.0 280.0 47.0 279.0 46.0 278.0 47.0 277.0 46.0 270.0 47.0 269.0 46.0 267.0 47.0 264.0 46.0 247.0 47.0 246.0 46.0 "/>
    <path d="M246.0 46.0 247.0 47.0 257.0 46.0 259.0 47.0 262.0 46.0 265.0 47.0 277.0 46.0 278.0 47.0 279.0 46.0 280.0 47.0 281.0 46.0 283.0 50.0 281.0 54.0 276.0 55.0 275.0 54.0 274.0 55.0 272.0 54.0 265.0 55.0 247.0 54.0 246.0 55.0 244.0 53.0 244.0 48.0 246.0 46.0 "/>
    <path d="M165.0 43.0 162.0 45.0 163.0 50.0 162.0 52.0 163.0 59.0 162.0 62.0 162.0 92.0 172.0 93.0 172.0 55.0 173.0 54.0 172.0 46.0 173.0 45.0 171.0 43.0 165.0 43.0 "/>
    <path d="M164.0 44.0 171.0 43.0 173.0 45.0 172.0 46.0 173.0 54.0 172.0 55.0 172.0 92.0 171.0 93.0 162.0 92.0 162.0 62.0 163.0 61.0 162.0 45.0 164.0 44.0 "/>
</svg>